<svg width="16" height="16" viewBox="0 0 16 16" fill="none" xmlns="http://www.w3.org/2000/svg">
<g clip-path="url(#clip0_79_177)">
<rect width="16" height="16" fill="black"/>
<path fill-rule="evenodd" clip-rule="evenodd" d="M8 3.07917L4.57427 0.112433C4.49109 0.0403947 4.37889 0 4.26199 0H0.222222C0.0994923 0 0 0.0872527 0 0.194884V4.63825C0.629086 9.60117 2.372 12.0949 8 16C13.628 12.0949 15.3709 9.60117 16 4.63825V0.194884C16 0.0872527 15.9005 0 15.7778 0H11.738C11.6211 0 11.5089 0.0403947 11.4257 0.112433L8 3.07917ZM8 4.24848L4.44444 1.14982H1.22222V3.07917L8 12.0438L14.7778 3.07917V1.14982H11.5556L8 4.24848ZM8 13.6029L1.22222 4.63825C1.65898 8.84088 3.11653 11.0636 8 14.7722C12.8835 11.0636 14.341 8.84088 14.7778 4.63825L8 13.6029Z" fill="white"/>
<path d="M3.91427 3.99698L7.9998 8.92587L10.6319 5.873C10.7115 5.78059 10.7554 5.66264 10.7554 5.54062C10.7554 5.06877 10.1689 4.85087 9.86082 5.20824L7.9998 7.3668L4.68029 3.36204C4.38294 3.00332 3.7998 3.21358 3.7998 3.67951C3.7998 3.79544 3.84029 3.90773 3.91427 3.99698Z" fill="white"/>
</g>
<defs>
<clipPath id="clip0_79_177">
<rect width="16" height="16" fill="white"/>
</clipPath>
</defs>
</svg>
