<svg width="362" height="412" viewBox="0 0 362 412" fill="none" xmlns="http://www.w3.org/2000/svg">
<g clip-path="url(#clip0_79_145)">
<path fill-rule="evenodd" clip-rule="evenodd" d="M181 80L103.921 3.8846C102.049 2.03638 99.525 1 96.8947 1H6C3.23858 1 1 3.23858 1 6V120C14.9192 245.213 53.0733 309.167 174.758 406.534C178.378 409.43 183.622 409.43 187.242 406.534C308.927 309.167 347.081 245.213 361 120V6C361 3.23858 358.761 1 356 1H265.105C262.475 1 259.951 2.03638 258.079 3.8846L181 80ZM181 110L101 30.5H28.5V80L181 310L333.5 80V30.5H261L181 110ZM181 350L28.5 120C38.1285 225.644 69.8054 282.523 174.43 374.275C178.167 377.553 183.833 377.553 187.57 374.275C292.195 282.523 323.872 225.644 333.5 120L181 350Z" fill="black" stroke="black"/>
<path d="M87.4557 101.315L177.035 224.545C179.008 227.26 183.043 227.298 185.067 224.621L241.988 149.338C242.645 148.47 243 147.411 243 146.322V122.903C243 118.108 236.904 116.062 234.012 119.887L185.067 184.621C183.043 187.298 179.008 187.26 177.035 184.545L95.5444 72.442C92.6967 68.5246 86.5 70.5389 86.5 75.3819V98.3749C86.5 99.4312 86.8345 100.46 87.4557 101.315Z" fill="black" stroke="black"/>
</g>
<defs>
<clipPath id="clip0_79_145">
<rect width="362" height="411.5" fill="white"/>
</clipPath>
</defs>
</svg>
